<svg xmlns="http://www.w3.org/2000/svg" xmlns:xlink="http://www.w3.org/1999/xlink" width="32" height="22" viewBox="0 0 32 22"><defs><path id="uv0aa" d="M269.5 6591.015c-.276 0-.653-.013-.96.044l13.46 10.727 13.514-10.77h-.014zm-1.5 16.5c0 .552.949 1.5 1.5 1.5h26c.552 0 .5-.948.5-1.5v-14.326l-13.345 10.676a.994.994 0 0 1-.655.244.994.994 0 0 1-.655-.244L268 6593.189zm27.5-18.5c1.37 0 2.182.576 2.424 1.71.068.164.09.34.068.513.005.09.008.182.008.277v16c0 1.657-.843 3.5-2.5 3.5h-26c-1.657 0-3.5-1.843-3.5-3.5v-16c0-.083.005-.163.014-.242a.998.998 0 0 1 .373-.954c.628-.866 1.919-1.304 3.113-1.304z"/></defs><g><g transform="translate(-266 -6589)"><use fill="#e2574c" xlink:href="#uv0aa"/></g></g></svg>