<svg xmlns="http://www.w3.org/2000/svg" xmlns:xlink="http://www.w3.org/1999/xlink" width="14" height="16" viewBox="0 0 14 16"><defs><path id="jdd7a" d="M922.998 5242.006c-2.208 0-4.003 1.941-4.003 3.686v2.633c0 1.151.79 2.625 2.091 3.733l-4.085 2.44s-1 .445-1 .999v1.5a1 1 0 0 0 1 1h11.993a1 1 0 0 0 1-1v-1.5c0-.588-1-1-1-1l-4.071-2.43c1.296-1.076 2.073-2.477 2.073-3.742v-2.633c0-1.745-1.79-3.686-3.998-3.686z"/></defs><g><g transform="translate(-916 -5242)"><use fill="#ddd" xlink:href="#jdd7a"/></g></g></svg>